<mxfile host="app.diagrams.net" agent="Mozilla/5.0 (Windows NT 10.0; Win64; x64; rv:132.0) Gecko/20100101 Firefox/132.0" version="24.9.1">
  <diagram name="Seite-1" id="iQG80czTlL0BdlnLGspK">
    <mxGraphModel dx="1219" dy="1100" grid="1" gridSize="10" guides="1" tooltips="1" connect="1" arrows="1" fold="1" page="1" pageScale="1" pageWidth="827" pageHeight="1169" math="0" shadow="0">
      <root>
        <mxCell id="0" />
        <mxCell id="1" parent="0" />
        <mxCell id="WyGPODhQ9tmKDL1N24B0-1" value="Reservierungen" style="rounded=0;whiteSpace=wrap;html=1;" vertex="1" parent="1">
          <mxGeometry x="90" y="300" width="120" height="60" as="geometry" />
        </mxCell>
        <mxCell id="WyGPODhQ9tmKDL1N24B0-7" value="" style="edgeStyle=orthogonalEdgeStyle;rounded=0;orthogonalLoop=1;jettySize=auto;html=1;endArrow=none;endFill=0;" edge="1" parent="1" source="WyGPODhQ9tmKDL1N24B0-2" target="WyGPODhQ9tmKDL1N24B0-6">
          <mxGeometry relative="1" as="geometry" />
        </mxCell>
        <mxCell id="WyGPODhQ9tmKDL1N24B0-9" value="1" style="edgeStyle=orthogonalEdgeStyle;rounded=0;orthogonalLoop=1;jettySize=auto;html=1;exitX=0;exitY=0.5;exitDx=0;exitDy=0;entryX=1;entryY=0.5;entryDx=0;entryDy=0;endArrow=none;endFill=0;" edge="1" parent="1" source="WyGPODhQ9tmKDL1N24B0-2" target="WyGPODhQ9tmKDL1N24B0-8">
          <mxGeometry relative="1" as="geometry" />
        </mxCell>
        <mxCell id="WyGPODhQ9tmKDL1N24B0-2" value="Gruppen" style="rounded=0;whiteSpace=wrap;html=1;" vertex="1" parent="1">
          <mxGeometry x="560" y="300" width="120" height="60" as="geometry" />
        </mxCell>
        <mxCell id="WyGPODhQ9tmKDL1N24B0-3" value="&lt;div&gt;Reservierung_ID(PK)&lt;/div&gt;&lt;div&gt;Gruppen_ID(FK)&lt;br&gt;&lt;/div&gt;&lt;div&gt;Datum&lt;br&gt;&lt;/div&gt;&lt;div&gt;Gruppengröße&lt;/div&gt;&lt;div&gt;Anforderungen&lt;br&gt;&lt;/div&gt;" style="ellipse;whiteSpace=wrap;html=1;" vertex="1" parent="1">
          <mxGeometry x="70" y="480" width="160" height="100" as="geometry" />
        </mxCell>
        <mxCell id="WyGPODhQ9tmKDL1N24B0-4" value="" style="endArrow=none;html=1;rounded=0;entryX=0.5;entryY=1;entryDx=0;entryDy=0;exitX=0.5;exitY=0;exitDx=0;exitDy=0;" edge="1" parent="1" source="WyGPODhQ9tmKDL1N24B0-3" target="WyGPODhQ9tmKDL1N24B0-1">
          <mxGeometry width="50" height="50" relative="1" as="geometry">
            <mxPoint x="390" y="590" as="sourcePoint" />
            <mxPoint x="440" y="540" as="targetPoint" />
          </mxGeometry>
        </mxCell>
        <mxCell id="WyGPODhQ9tmKDL1N24B0-6" value="&lt;div&gt;Gruppen_ID(PK)&lt;/div&gt;&lt;div&gt;Gruppenname&lt;/div&gt;&lt;div&gt;Kontaktinformationen&lt;br&gt;&lt;/div&gt;" style="ellipse;whiteSpace=wrap;html=1;" vertex="1" parent="1">
          <mxGeometry x="540" y="480" width="160" height="100" as="geometry" />
        </mxCell>
        <mxCell id="WyGPODhQ9tmKDL1N24B0-10" value="n" style="edgeStyle=orthogonalEdgeStyle;rounded=0;orthogonalLoop=1;jettySize=auto;html=1;exitX=0;exitY=0.5;exitDx=0;exitDy=0;entryX=1;entryY=0.5;entryDx=0;entryDy=0;endArrow=none;endFill=0;" edge="1" parent="1" source="WyGPODhQ9tmKDL1N24B0-8" target="WyGPODhQ9tmKDL1N24B0-1">
          <mxGeometry relative="1" as="geometry" />
        </mxCell>
        <mxCell id="WyGPODhQ9tmKDL1N24B0-8" value="reserviert" style="rhombus;whiteSpace=wrap;html=1;" vertex="1" parent="1">
          <mxGeometry x="350" y="290" width="80" height="80" as="geometry" />
        </mxCell>
      </root>
    </mxGraphModel>
  </diagram>
</mxfile>
